<?xml version="1.0" encoding="UTF-8" standalone="no"?>
<!-- Created with Inkscape (http://www.inkscape.org/) -->

<svg
   width="137.30066mm"
   height="118.90676mm"
   viewBox="0 0 137.30066 118.90676"
   version="1.1"
   id="svg1"
   xml:space="preserve"
   inkscape:version="1.3 (0e150ed6c4, 2023-07-21)"
   sodipodi:docname="Logo HD.svg"
   inkscape:export-filename="Logo HD.png"
   inkscape:export-xdpi="96"
   inkscape:export-ydpi="96"
   xmlns:inkscape="http://www.inkscape.org/namespaces/inkscape"
   xmlns:sodipodi="http://sodipodi.sourceforge.net/DTD/sodipodi-0.dtd"
   xmlns="http://www.w3.org/2000/svg"
   xmlns:svg="http://www.w3.org/2000/svg"><sodipodi:namedview
     id="namedview1"
     pagecolor="#505050"
     bordercolor="#eeeeee"
     borderopacity="1"
     inkscape:showpageshadow="0"
     inkscape:pageopacity="0"
     inkscape:pagecheckerboard="0"
     inkscape:deskcolor="#505050"
     inkscape:document-units="mm"
     showguides="true"
     inkscape:zoom="0.125"
     inkscape:cx="13852"
     inkscape:cy="2148"
     inkscape:window-width="1920"
     inkscape:window-height="1009"
     inkscape:window-x="-8"
     inkscape:window-y="-8"
     inkscape:window-maximized="1"
     inkscape:current-layer="layer1"><sodipodi:guide
       position="-3908.0372,844.94623"
       orientation="0.8660254,-0.5"
       id="guide7"
       inkscape:locked="false"
       inkscape:label=""
       inkscape:color="rgb(0,134,229)" /><sodipodi:guide
       position="-3102.2423,365.97299"
       orientation="1,0"
       id="guide253"
       inkscape:locked="false" /><sodipodi:guide
       position="-4227.4043,663.80709"
       orientation="1,0"
       id="guide320"
       inkscape:locked="false" /><sodipodi:guide
       position="-2960.8539,-97.172536"
       orientation="1,0"
       id="guide361"
       inkscape:locked="false" /><sodipodi:guide
       position="-2882.3883,-127.38606"
       orientation="0.70710678,-0.70710678"
       id="guide414"
       inkscape:locked="false" /><sodipodi:guide
       position="-2839.6832,-145.4453"
       orientation="1,0"
       id="guide415"
       inkscape:locked="false" /><sodipodi:guide
       position="-2399.509,246.77386"
       orientation="1,0"
       id="guide487"
       inkscape:locked="false" /><sodipodi:guide
       position="-2042.0026,246.7775"
       orientation="1,0"
       id="guide492"
       inkscape:locked="false" /><sodipodi:guide
       position="-2312.7286,-62.105926"
       orientation="1,0"
       id="guide501"
       inkscape:locked="false" /><sodipodi:guide
       position="-2157.4891,1364.3799"
       orientation="1,0"
       id="guide545"
       inkscape:locked="false" /><sodipodi:guide
       position="-2776.4861,1200.8652"
       orientation="1,0"
       id="guide588"
       inkscape:locked="false" /><sodipodi:guide
       position="-1920.1971,1719.741"
       orientation="1,0"
       id="guide639"
       inkscape:locked="false" /><sodipodi:guide
       position="-964.04876,296.83524"
       orientation="1,0"
       id="guide727"
       inkscape:locked="false" /></sodipodi:namedview><defs
     id="defs1" /><g
     inkscape:label="Layer 1"
     inkscape:groupmode="layer"
     id="layer1"
     transform="translate(-4044.8351,-587.51292)"><path
       id="path2"
       style="fill:#ffffff;fill-opacity:1;stroke:none;stroke-width:0.600001;stroke-linecap:butt;stroke-linejoin:round"
       d="m 4147.8099,587.51303 -7.6277,-1.2e-4 -2e-4,4.5e-4 -15.2549,10e-6 -3e-4,4.5e-4 -15.2559,-6e-5 -14.8818,25.776 -6.6058,11.44158 -0.8914,1.54399 7.628,13.21205 7.6277,13.21065 -19.5743,33.90361 -7.6279,13.21201 3.8139,6.60568 7.6282,-1.3e-4 6e-4,3e-4 15.2555,-1.9e-4 14.8561,8e-5 18.6619,2.8e-4 12.2488,-3.4e-4 34.3253,-59.45315 -4.5444,-7.87054 -10.7115,-18.55288 -7.6276,-13.2118 -7.6279,-13.21136 -4e-4,-2.5e-4 z m -7.6282,13.21246 3.8142,6.60587 7.6282,13.21211 7.6278,13.21136 7.6278,13.21251 -26.6966,46.23979 -25.9409,3.9e-4 -4.5706,-2.2e-4 -15.256,-4e-5 21.4873,-37.21713 12.8372,-22.23469 7.628,13.21205 -19.0686,33.02778 15.2553,2.6e-4 19.0692,-33.02869 -3.814,-6.60568 -12.8665,-22.28533 -8e-4,1.6e-4 -2.389,-4.13849 -7.6276,-1.3e-4 -14.7511,25.54955 -7.6274,-13.21112 3.6835,-6.38 11.0678,-19.16999 15.2551,-4.6e-4 z m -45.766,-13.21246 -15.2555,2.1e-4 -34.3253,59.45315 7.6276,13.21181 z m -14.7513,51.97341 -4.6927,8.12806 -14.8818,25.77599 7.628,13.21205 18.6958,-32.38199 0.8787,-1.52206 z" /></g></svg>
