<svg width="62" height="61" viewBox="0 0 62 61" fill="none" xmlns="http://www.w3.org/2000/svg">
<path d="M29.5786 45.7919V1C26.6868 1.15709 25.0747 1.45758 22.2139 2.32806V24.5429H9.53693C9.33645 21.4713 11.0932 18.2878 15.5736 14.5221V5.10492C9.86629 9.21828 8.70681 10.828 6.27715 13.9184C3.09127 19.2606 3.0707 20.2253 1.93076 23.2148C0.545862 30.6209 0.842459 32.7638 1.93076 37.4613C3.52508 41.9638 4.59691 44.3618 7.12228 48.2065C10.6105 52.2358 12.7419 54.0352 16.9016 56.2956C21.454 58.3835 24.2226 59.2166 29.5786 60.0384V52.9151C22.5818 52.325 19.9781 50.3866 15.5736 46.637C11.7521 42.9547 10.2982 39.9746 8.81253 32.1491H22.2139V45.7919H29.5786Z" fill="black"/>
<path d="M32.4762 45.7919V1C36.5833 1.12237 39.1305 1.59705 44.5494 3.89759C50.0111 7.0868 52.3461 9.38629 55.8983 13.9184C59.0497 18.8442 59.6892 20.7856 60.124 23.2148C61.4331 29.9967 61.1419 32.8682 60.124 37.4613C58.7347 42.329 57.553 44.6341 54.9325 48.2065C51.9228 51.985 49.8613 53.6632 45.8775 56.2956C40.9268 59.0147 37.9414 59.6063 32.4762 60.0384V52.9151C36.4948 52.6004 38.7211 51.9608 42.6177 49.5346C46.1934 47.1818 47.9758 45.6966 49.9824 42.1699C52.7672 37.1322 53.5308 34.2549 53.3629 29.01C52.8985 24.3559 51.9895 21.7407 48.8958 17.0575C46.1271 13.4612 44.1084 11.9398 39.8409 9.93423V45.7919H32.4762Z" fill="black"/>
<path d="M29.5786 45.7919V1C26.6868 1.15709 25.0747 1.45758 22.2139 2.32806V24.5429H9.53693C9.33645 21.4713 11.0932 18.2878 15.5736 14.5221V5.10492C9.86629 9.21828 8.70681 10.828 6.27715 13.9184C3.09127 19.2606 3.0707 20.2253 1.93076 23.2148C0.545862 30.6209 0.842459 32.7638 1.93076 37.4613C3.52508 41.9638 4.59691 44.3618 7.12228 48.2065C10.6105 52.2358 12.7419 54.0352 16.9016 56.2956C21.454 58.3835 24.2226 59.2166 29.5786 60.0384V52.9151C22.5818 52.325 19.9781 50.3866 15.5736 46.637C11.7521 42.9547 10.2982 39.9746 8.81253 32.1491H22.2139V45.7919H29.5786Z" stroke="black"/>
<path d="M32.4762 45.7919V1C36.5833 1.12237 39.1305 1.59705 44.5494 3.89759C50.0111 7.0868 52.3461 9.38629 55.8983 13.9184C59.0497 18.8442 59.6892 20.7856 60.124 23.2148C61.4331 29.9967 61.1419 32.8682 60.124 37.4613C58.7347 42.329 57.553 44.6341 54.9325 48.2065C51.9228 51.985 49.8613 53.6632 45.8775 56.2956C40.9268 59.0147 37.9414 59.6063 32.4762 60.0384V52.9151C36.4948 52.6004 38.7211 51.9608 42.6177 49.5346C46.1934 47.1818 47.9758 45.6966 49.9824 42.1699C52.7672 37.1322 53.5308 34.2549 53.3629 29.01C52.8985 24.3559 51.9895 21.7407 48.8958 17.0575C46.1271 13.4612 44.1084 11.9398 39.8409 9.93423V45.7919H32.4762Z" stroke="black"/>
</svg>
