<svg width="60" height="60" viewBox="0 0 60 60" fill="none" xmlns="http://www.w3.org/2000/svg">
<path d="M28.5786 44.7919V0C25.6868 0.157088 24.0747 0.457576 21.2139 1.32806V23.5429H8.53693C8.33645 20.4713 10.0932 17.2878 14.5736 13.5221V4.10492C8.86629 8.21828 7.70681 9.82802 5.27715 12.9184C2.09127 18.2606 2.0707 19.2253 0.930763 22.2148C-0.454138 29.6209 -0.157541 31.7638 0.930763 36.4613C2.52508 40.9638 3.59691 43.3618 6.12228 47.2065C9.61049 51.2358 11.7419 53.0352 15.9016 55.2956C20.454 57.3835 23.2226 58.2166 28.5786 59.0384V51.9151C21.5818 51.325 18.9781 49.3866 14.5736 45.637C10.7521 41.9547 9.29816 38.9746 7.81253 31.1491H21.2139V44.7919H28.5786Z" fill="white"/>
<path d="M31.4762 44.7919V0C35.5833 0.122365 38.1305 0.597049 43.5494 2.89759C49.0111 6.0868 51.3461 8.38629 54.8983 12.9184C58.0497 17.8442 58.6892 19.7856 59.124 22.2148C60.4331 28.9967 60.1419 31.8682 59.124 36.4613C57.7347 41.329 56.553 43.6341 53.9325 47.2065C50.9228 50.985 48.8613 52.6632 44.8775 55.2956C39.9268 58.0147 36.9414 58.6063 31.4762 59.0384V51.9151C35.4948 51.6004 37.7211 50.9608 41.6177 48.5346C45.1934 46.1818 46.9758 44.6966 48.9824 41.1699C51.7672 36.1322 52.5308 33.2549 52.3629 28.01C51.8985 23.3559 50.9895 20.7407 47.8958 16.0575C45.1271 12.4612 43.1084 10.9398 38.8409 8.93423V44.7919H31.4762Z" fill="white"/>
</svg>
