<svg width="100" height="100" viewBox="0 0 100 100" fill="none" xmlns="http://www.w3.org/2000/svg">
<g clip-path="url(#clip0_324_79)">
<path d="M37.0337 77.3354C37.0337 77.3354 33.2123 79.5577 39.7533 80.3097C47.6775 81.2137 51.7275 81.0841 60.4601 79.4313C60.4601 79.4313 62.756 80.8709 65.9623 82.1178C46.3862 90.5078 21.6577 81.6318 37.0337 77.3354Z" fill="#5382A1"/>
<path d="M34.6421 66.3871C34.6421 66.3871 30.356 69.5597 36.9019 70.2368C45.3668 71.1101 52.0517 71.1815 63.6192 68.9541C63.6192 68.9541 65.2192 70.5762 67.735 71.4632C44.0663 78.3842 17.7036 72.009 34.6421 66.3871Z" fill="#5382A1"/>
<path d="M54.808 47.815C59.6316 53.3684 53.5407 58.3658 53.5407 58.3658C53.5407 58.3658 65.7885 52.0431 60.1636 44.1256C54.9102 36.742 50.8815 33.0734 72.6912 20.4246C72.6912 20.4246 38.4571 28.9747 54.808 47.815Z" fill="#E76F00"/>
<path d="M80.699 85.4337C80.699 85.4337 83.5269 87.7638 77.5845 89.5664C66.2849 92.9895 30.5544 94.0231 20.6286 89.7028C17.0606 88.1506 23.7517 85.9965 25.8565 85.5445C28.0515 85.0685 29.3059 85.1571 29.3059 85.1571C25.3379 82.3618 3.65808 90.6459 18.2937 93.0183C58.2071 99.4911 91.052 90.1036 80.699 85.4337Z" fill="#5382A1"/>
<path d="M38.872 55.0434C38.872 55.0434 20.6972 59.3602 32.4359 60.9278C37.3923 61.5914 47.2728 61.4413 56.4762 60.6701C63.9978 60.0356 71.5504 58.6866 71.5504 58.6866C71.5504 58.6866 68.8982 59.8225 66.9794 61.1326C48.5232 65.9866 12.8692 63.7285 23.1335 58.7635C31.8141 54.5674 38.872 55.0434 38.872 55.0434Z" fill="#5382A1"/>
<path d="M71.4751 73.2674C90.2367 63.5182 81.5621 54.1492 75.5073 55.4114C74.0233 55.7203 73.3616 55.988 73.3616 55.988C73.3616 55.988 73.9125 55.1249 74.9647 54.7514C86.943 50.5402 96.1551 67.1717 71.098 73.7588C71.098 73.759 71.3883 73.4995 71.4751 73.2674Z" fill="#5382A1"/>
<path d="M60.164 0C60.164 0 70.5545 10.394 50.3091 26.377C34.0744 39.1981 46.6071 46.5083 50.3024 54.8606C40.8259 46.3105 33.8714 38.7838 38.537 31.7786C45.385 21.4957 64.3563 16.5102 60.164 0Z" fill="#E76F00"/>
<path d="M40.715 99.6856C58.7238 100.838 86.3784 99.046 87.0333 90.5248C87.0333 90.5248 85.7743 93.7551 72.15 96.3205C56.7792 99.2131 37.8213 98.8754 26.5773 97.0216C26.5775 97.0213 28.8791 98.9266 40.715 99.6856Z" fill="#5382A1"/>
</g>
<defs>
<clipPath id="clip0_324_79">
<rect width="100" height="100" fill="white"/>
</clipPath>
</defs>
</svg>
