<svg width="100" height="100" viewBox="0 0 100 100" fill="none" xmlns="http://www.w3.org/2000/svg">
<g clip-path="url(#clip0_323_64)">
<path d="M46.7292 0.0208901L45.2083 0.166723C31 1.43756 17.7083 9.10422 9.27083 20.8751C4.61624 27.3438 1.59301 34.8411 0.458334 42.7292C0.0724825 45.1395 -0.0809998 47.5813 5.67073e-07 50.0209C5.67073e-07 53.7292 0.0416672 54.5417 0.458334 57.2917C2.10431 68.3619 7.40182 78.5647 15.5095 86.2799C23.6172 93.995 34.0702 98.78 45.2083 99.8751C46.7292 100.042 53.2708 100.042 54.7917 99.8751C61.0755 99.261 67.1882 97.4731 72.8125 94.6042C73.6458 94.1876 73.8333 94.0417 73.7083 93.9584C73.6458 93.8959 69.9583 88.9584 65.5833 83.0417L57.5833 72.2292L47.5625 57.4167C44.2323 52.4513 40.8712 47.5068 37.4792 42.5834C37.4375 42.5834 37.3958 49.1667 37.375 57.2084C37.3333 71.2917 37.3333 71.8751 37.1667 72.2084C36.9897 72.5958 36.6791 72.9064 36.2917 73.0834C35.9792 73.2501 35.7083 73.2917 34.2292 73.2917H32.5417L32.0833 72.9792C31.809 72.8046 31.5862 72.5601 31.4375 72.2709L31.2292 71.8542L31.25 52.2292L31.2917 32.6459L31.5833 32.2501C31.75 32.0417 32.0833 31.7917 32.3125 31.6459C32.7083 31.4584 32.875 31.4376 34.5625 31.4376C36.5417 31.4376 36.875 31.5209 37.3958 32.0834C37.5417 32.2501 42.9792 40.4167 49.4792 50.2501L69.1875 80.1251L77.1042 92.1251L77.5208 91.8542C81.0625 89.5626 84.8125 86.2709 87.7708 82.8542C94.0719 75.6432 98.1589 66.7675 99.5417 57.2917C99.9583 54.5417 100 53.7501 100 50.0001C100 46.2917 99.9583 45.4792 99.5417 42.7292C97.9023 31.6812 92.6261 21.4953 84.5476 13.7828C76.469 6.07027 66.0496 1.27159 54.9375 0.14589C54 0.0625567 47.5417 -0.0624433 46.7292 0.0208901ZM67.1875 30.2709C67.4215 30.3865 67.6303 30.5473 67.802 30.7439C67.9736 30.9406 68.1046 31.1692 68.1875 31.4167C68.25 31.6667 68.2708 37.1042 68.25 49.3542V66.9376L65.125 62.1876L62.0208 57.4376V44.6459C62.0208 36.3959 62.0625 31.7501 62.125 31.5209C62.1943 31.2623 62.3149 31.0202 62.4795 30.8091C62.6441 30.598 62.8495 30.422 63.0833 30.2917C63.5 30.0834 63.625 30.0834 65.1667 30.0834C66.625 30.0834 66.875 30.0834 67.1875 30.2709Z" fill="black"/>
</g>
<defs>
<clipPath id="clip0_323_64">
<rect width="100" height="100" fill="white"/>
</clipPath>
</defs>
</svg>
